PathFileType	4	(X/Y/Z)	/Users/itak/Documents/Research/Walk-IL/dataset/trc/00471_00167.trc
DataRate	CameraRate	NumFrames	NumMarkers	Units	OrigDataRate	OrigDataStartFrame	OrigNumFrames
100.000000	100.000000	4	53	mm	100.000000	547	626
Frame#	Time	RPSI			LPSI			L3			STRN			T10			C7			CLAV			RBAK			LBAK			LSHO			LUPA			LAEL			LAOL			LWTS			LWPS			LFRA			LIFD			LHPS			LHTS			RSHO			RUPA			RAEL			RAOL			RWTS			RWPS			RFRA			RIFD			RHTS			RHPS			RBHD			LFHD			RFHD			LBHD			LHIP			RHIP			RASI			LASI			LKNE			LTHI			LANK			LTIP			LTOE			LMT1			LMT5			LHEE			RKNE			RTHI			RANK			RTIP			RTOE			RMT1			RMT5			RHEE			
		X1	Y1	Z1	X2	Y2	Z2	X3	Y3	Z3	X4	Y4	Z4	X5	Y5	Z5	X6	Y6	Z6	X7	Y7	Z7	X8	Y8	Z8	X9	Y9	Z9	X10	Y10	Z10	X11	Y11	Z11	X12	Y12	Z12	X13	Y13	Z13	X14	Y14	Z14	X15	Y15	Z15	X16	Y16	Z16	X17	Y17	Z17	X18	Y18	Z18	X19	Y19	Z19	X20	Y20	Z20	X21	Y21	Z21	X22	Y22	Z22	X23	Y23	Z23	X24	Y24	Z24	X25	Y25	Z25	X26	Y26	Z26	X27	Y27	Z27	X28	Y28	Z28	X29	Y29	Z29	X30	Y30	Z30	X31	Y31	Z31	X32	Y32	Z32	X33	Y33	Z33	X34	Y34	Z34	X35	Y35	Z35	X36	Y36	Z36	X37	Y37	Z37	X38	Y38	Z38	X39	Y39	Z39	X40	Y40	Z40	X41	Y41	Z41	X42	Y42	Z42	X43	Y43	Z43	X44	Y44	Z44	X45	Y45	Z45	X46	Y46	Z46	X47	Y47	Z47	X48	Y48	Z48	X49	Y49	Z49	X50	Y50	Z50	X51	Y51	Z51	X52	Y52	Z52	X53	Y53	Z53	

548	5.47	-565.5753173828125	968.8464965820312	-375.9534301757812	-572.0624389648438	967.5071411132812	-234.3956756591797	-579.222900390625	1053.940307617188	-317.5157470703125	-837.218994140625	1264.352661132812	-319.68310546875	-556.4960327148438	1175.965576171875	-310.0932312011719	-604.0519409179688	1448.5751953125	-324.0507507324219	-794.1000366210938	1374.192993164062	-316.163818359375	-543.9799194335938	1323.970947265625	-414.5812377929688	-575.306884765625	1399.302856445312	-224.259033203125	-678.469970703125	1426.8935546875	-147.9730682373047	-672.0440063476562	1309.838012695312	-47.88241958618164	-699.7962036132812	1096.530883789062	-7.99268913269043	-624.0119018554688	1076.989501953125	-76.52167510986328	-785.9821166992188	894.2532958984375	-42.70712280273438	-738.5744018554688	881.1246337890625	13.36341094970703	-722.8634033203125	1009.716491699219	5.402011871337891	-794.130126953125	736.569091796875	-20.91580390930176	-747.0575561523438	804.9071655273438	18.19706916809082	-802.66796875	810.3635864257812	-27.84423637390137	-667.1217651367188	1420.742797851562	-486.7164916992188	-642.9989013671875	1359.94189453125	-560.109130859375	-625.6177368164062	1074.98779296875	-612.498046875	-576.4800415039062	1066.672607421875	-566.0052490234375	-688.0432739257812	849.2273559570312	-571.2094116210938	-622.0157470703125	852.1749877929688	-629.747314453125	-618.9749755859375	1017.468872070312	-622.6808471679688	-643.9068603515625	694.5079956054688	-574.5228881835938	-675.6387329101562	751.288330078125	-578.0892944335938	-614.9555053710938	764.42041015625	-624.6539916992188	-703.9194946289062	1653.327270507812	-411.1387023925781	-828.6929931640625	1658.756958007812	-246.2138671875	-837.4940185546875	1661.345703125	-376.15087890625	-676.3273315429688	1655.313842773438	-235.6954498291016	-709.4915771484375	871.2465209960938	-117.9992218017578	-674.2850952148438	859.6373901367188	-511.8817749023438	-786.260986328125	901.579345703125	-460.0574340820312	-807.943359375	906.328857421875	-201.0455017089844	-718.9982299804688	453.6953125	-141.92529296875	-735.6430053710938	603.7714233398438	-123.1406326293945	-660.6183471679688	41.37726211547852	-124.9419555664062	-717.2237548828125	303.2250061035156	-124.8769302368164	-875.2213134765625	52.54077529907227	-233.2178649902344	-796.8624267578125	53.52836608886719	-248.7047271728516	-812.9950561523438	45.67384719848633	-136.9995269775391	-604.5418090820312	44.20659255981445	-179.9286346435547	-687.0089111328125	466.9649658203125	-464.8312683105469	-714.6376342773438	724.304931640625	-517.186279296875	-643.97802734375	43.63663864135742	-445.4625854492188	-690.5867919921875	324.2228393554688	-467.8357543945312	-861.10986328125	47.88525009155273	-398.6118469238281	-794.9240112304688	49.79073333740234	-362.1581726074219	-776.8829956054688	47.69813537597656	-468.1882629394531	-577.87060546875	38.28812408447266	-400.3621520996094	
549	5.48	-566.7255249023438	969.0714721679688	-375.6967468261719	-572.8704833984375	967.5162963867188	-234.1553039550781	-580.2244873046875	1054.293579101562	-316.9790649414062	-838.4744262695312	1264.261962890625	-318.7264404296875	-557.6612548828125	1176.234130859375	-309.486572265625	-605.6123657226562	1448.805786132812	-323.2951354980469	-795.51318359375	1374.135620117188	-315.2126159667969	-545.4630126953125	1324.342407226562	-413.8321533203125	-576.6785888671875	1399.598022460938	-223.557373046875	-679.7803344726562	1427.099731445312	-147.1553802490234	-672.9212036132812	1310.205078125	-46.99631118774414	-699.9419555664062	1096.900146484375	-6.891826629638672	-624.5156860351562	1077.342407226562	-75.82029724121094	-786.44873046875	894.953125	-40.87763214111328	-738.5775146484375	881.6681518554688	14.76460456848145	-722.9315795898438	1010.091918945312	6.635021686553955	-796.2332153320312	737.6909790039062	-17.88778686523438	-747.8417358398438	805.7504272460938	20.24538230895996	-803.934326171875	811.5689086914062	-25.22034454345703	-668.7474365234375	1420.894775390625	-485.8806457519531	-644.4595336914062	1360.224243164062	-559.2783813476562	-625.10546875	1075.538696289062	-611.104248046875	-575.8624877929688	1067.97705078125	-564.540283203125	-683.778076171875	848.587890625	-570.3179321289062	-617.69873046875	852.9892578125	-628.81005859375	-617.5112915039062	1018.21923828125	-621.3394775390625	-636.0999755859375	694.7484741210938	-574.3291625976562	-668.3684692382812	750.2582397460938	-577.297607421875	-608.6840209960938	765.4605102539062	-624.1063232421875	-705.0225219726562	1653.347412109375	-410.3675842285156	-830.0426025390625	1659.050659179688	-245.6120300292969	-838.6571655273438	1661.642944335938	-375.6035766601562	-677.6672973632812	1655.284912109375	-234.8981170654297	-710.1182250976562	871.2398681640625	-117.4480667114258	-675.6292114257812	859.651123046875	-511.3460998535156	-787.4374389648438	901.4712524414062	-459.1202392578125	-808.7113647460938	906.3649291992188	-200.1687164306641	-720.6376342773438	453.6042785644531	-141.8707122802734	-736.9356689453125	603.8174438476562	-123.0020446777344	-660.5144653320312	41.40749740600586	-124.9653549194336	-718.259521484375	302.92041015625	-125.0761795043945	-875.2538452148438	53.23920822143555	-232.6367340087891	-797.01220703125	53.66928863525391	-248.3788146972656	-812.7413940429688	45.78739929199219	-136.6546783447266	-604.5591430664062	44.16703414916992	-180.0921630859375	-687.4671020507812	467.0144348144531	-464.3749694824219	-716.1195678710938	724.5813598632812	-516.7592163085938	-643.9884643554688	43.66537094116211	-445.4067077636719	-690.9207763671875	324.3782348632812	-467.468994140625	-861.1343994140625	47.85015487670898	-398.551025390625	-794.9838256835938	49.77452087402344	-362.1173095703125	-776.8954467773438	47.70205307006836	-468.1664733886719	-577.9209594726562	38.3850212097168	-400.2693176269531	
550	5.49	-567.7806396484375	969.28271484375	-375.349365234375	-573.5974731445312	967.4982299804688	-233.8269500732422	-581.1808471679688	1054.683471679688	-316.4129638671875	-839.660888671875	1264.193969726562	-317.7678833007812	-558.723388671875	1176.5400390625	-308.8588562011719	-607.1439208984375	1449.061279296875	-322.5259094238281	-796.885986328125	1374.112548828125	-314.258544921875	-546.9114379882812	1324.741577148438	-413.0542602539062	-578.0077514648438	1399.939697265625	-222.8125	-681.0858154296875	1427.36083984375	-146.3359375	-673.8931884765625	1310.652099609375	-46.09342575073242	-700.2527465820312	1097.340087890625	-5.826018810272217	-625.1237182617188	1077.771484375	-75.10095977783203	-787.0323486328125	895.6399536132812	-39.13351058959961	-738.7246704101562	882.2589721679688	16.10718154907227	-723.1694946289062	1010.542358398438	7.817193984985352	-797.9894409179688	738.719482421875	-15.05287265777588	-748.5652465820312	806.605712890625	22.16938209533691	-805.0973510742188	812.6564331054688	-22.77522659301758	-670.3011474609375	1421.118408203125	-485.0095520019531	-645.8187866210938	1360.63330078125	-558.4301147460938	-624.5927124023438	1076.204956054688	-609.8807983398438	-575.2498779296875	1069.269287109375	-563.287841796875	-680.0624389648438	848.3406372070312	-569.5665283203125	-613.9717407226562	853.9371337890625	-628.0147705078125	-616.1826171875	1019.062805175781	-620.1748657226562	-629.5428466796875	695.5723266601562	-574.3167114257812	-661.9193725585938	749.58642578125	-576.5606079101562	-603.2432861328125	766.6471557617188	-623.6331176757812	-706.1464233398438	1653.363891601562	-409.6278381347656	-831.4210815429688	1659.330200195312	-245.0733642578125	-839.81884765625	1661.876831054688	-375.1158752441406	-679.030517578125	1655.3564453125	-234.1126556396484	-710.7064208984375	871.1982421875	-116.9098281860352	-676.8619384765625	859.688720703125	-510.78759765625	-788.5186767578125	901.385498046875	-458.1934814453125	-809.4169921875	906.412109375	-199.3251342773438	-722.5662231445312	453.4874877929688	-141.8936004638672	-738.4444580078125	603.8563232421875	-122.9306335449219	-660.423095703125	41.47564697265625	-125.026725769043	-719.4959716796875	302.5608825683594	-125.3547210693359	-875.3486938476562	53.83457183837891	-232.0761108398438	-797.1718139648438	53.7524299621582	-248.1150665283203	-812.5012817382812	45.91011047363281	-136.3620300292969	-604.6166381835938	44.11000823974609	-180.3034820556641	-687.8994750976562	467.0884094238281	-463.9181823730469	-717.4727172851562	724.8643188476562	-516.3126831054688	-644.0065307617188	43.69071960449219	-445.355712890625	-691.241455078125	324.5446166992188	-467.1082458496094	-861.1651611328125	47.81539916992188	-398.4862976074219	-795.051025390625	49.76053237915039	-362.0765380859375	-776.915283203125	47.70654296875	-468.1461486816406	-577.9675903320312	38.48575210571289	-400.1790771484375	
551	5.5	-568.7407836914062	969.482177734375	-374.9080505371094	-574.2724609375	967.4893798828125	-233.4075164794922	-582.0994262695312	1055.080688476562	-315.8228454589844	-840.7850952148438	1264.145385742188	-316.8141479492188	-559.6937255859375	1176.869506835938	-308.2075805664062	-608.638427734375	1449.32958984375	-321.7439575195312	-798.2120971679688	1374.1181640625	-313.3109741210938	-548.3184814453125	1325.15771484375	-412.2462158203125	-579.2933349609375	1400.30126953125	-222.0257263183594	-682.384033203125	1427.650146484375	-145.5158538818359	-674.9512939453125	1311.13671875	-45.17647552490234	-700.7256469726562	1097.818359375	-4.778236865997314	-625.8356323242188	1078.23779296875	-74.33534240722656	-787.7442016601562	896.2786865234375	-37.47092819213867	-739.0369873046875	882.857666015625	17.40566444396973	-723.587890625	1011.034057617188	8.970512390136719	-799.4037475585938	739.6022338867188	-12.47160339355469	-749.2409057617188	807.4150390625	23.94412994384766	-806.1637573242188	813.5762329101562	-20.54029655456543	-671.7821655273438	1421.394409179688	-484.1116638183594	-647.083251953125	1361.14794921875	-557.577392578125	-624.075927734375	1076.954833984375	-608.84521484375	-574.6357421875	1070.523315429688	-562.271240234375	-676.8985595703125	848.4000244140625	-568.9248046875	-610.8463134765625	854.9517211914062	-627.3516845703125	-614.9953002929688	1019.956848144531	-619.2048950195312	-624.2138671875	696.8401489257812	-574.3869018554688	-656.4443969726562	749.2867431640625	-575.8640747070312	-598.6639404296875	767.8895263671875	-623.1922607421875	-707.288330078125	1653.374755859375	-408.9189147949219	-832.8231811523438	1659.592163085938	-244.5914764404297	-840.9805908203125	1662.057006835938	-374.6761169433594	-680.4052124023438	1655.504150390625	-233.3373565673828	-711.2728881835938	871.1387939453125	-116.393196105957	-677.96142578125	859.7551879882812	-510.2135620117188	-789.4981079101562	901.344482421875	-457.31591796875	-810.0836181640625	906.4659423828125	-198.5365142822266	-724.6881103515625	453.3481140136719	-141.9566192626953	-740.1142578125	603.8866577148438	-122.877815246582	-660.3473510742188	41.56694412231445	-125.1128616333008	-720.8699951171875	302.1659240722656	-125.6648864746094	-875.4835205078125	54.30593490600586	-231.5670776367188	-797.3311157226562	53.78293228149414	-247.9127044677734	-812.288818359375	46.02970886230469	-136.1236267089844	-604.7025146484375	44.04561233520508	-180.5362548828125	-688.3121948242188	467.1975402832031	-463.4745483398438	-718.6002197265625	725.1052856445312	-515.8273315429688	-644.0305786132812	43.71346282958984	-445.3118896484375	-691.547607421875	324.7090148925781	-466.772705078125	-861.2025756835938	47.78112030029297	-398.4194641113281	-795.12060546875	49.74948883056641	-362.0414428710938	-776.9434814453125	47.71069717407227	-468.1305847167969	-578.010986328125	38.5888786315918	-400.0948181152344	
